<svg width="65" height="64" viewBox="0 0 65 64" fill="none" xmlns="http://www.w3.org/2000/svg">
<g clip-path="url(#clip0_53_222)">
<path d="M48.3494 35.8C50.0494 34.1 51.7494 32.4 53.3494 30.6C54.2494 29.7 55.0495 28.8 55.9495 28C58.3495 25.6 62.3495 26.2 63.9495 29.2C64.8495 30.8 64.5495 33.4 63.2495 34.9C60.9495 37.7 58.6494 40.4 56.3494 43.2C55.1494 44.6 53.9495 46 52.7495 47.5C50.4495 50.3 47.5494 51.6 44.0494 51.6C38.7494 51.6 33.5495 51.7 28.2495 51.6C26.2495 51.6 24.9495 52.4 23.7495 53.8C23.6495 53.9 23.6495 54.1 23.6495 54.3C23.9495 55.7 23.5495 57 22.5495 58C20.6495 59.9 18.7495 61.7 16.8495 63.6C16.0495 64.4 15.4495 64.4 14.6495 63.6C10.1495 59 5.54945 54.5 1.04945 49.9C0.349452 49.1 0.249452 48.5 1.04945 47.7C2.94945 45.8 4.84945 43.9 6.64945 42C7.54945 41 8.64945 40.6 9.84945 40.7C10.0495 40.7 10.3495 40.6 10.4495 40.4C14.5495 33.1 23.6495 31.3 30.1495 33.9C30.4495 34 30.8495 34.1 31.1495 34.1C35.3495 34.1 39.6494 34.1 43.8494 34.1C45.9494 34 46.8494 34.3 48.3494 35.8ZM22.2495 51.7C22.3495 51.6 22.5495 51.5 22.6495 51.3C24.2495 49.6 26.1495 48.9 28.4495 49C33.6495 49.1 38.7495 49 43.9495 49C46.5495 49 48.8494 48.2 50.5494 46.2C54.1494 41.9 57.7494 37.6 61.3494 33.3C62.3494 32.1 62.2495 30.6 61.2495 29.7C60.2495 28.8 58.7494 28.9 57.6494 30C55.1494 32.5 52.7495 35.1 50.2495 37.6C49.8495 38.1 49.4494 38.5 49.5494 39.2C49.6494 39.5 49.4495 39.9 49.4495 40.2C48.8495 42.5 46.9494 44 44.3494 44C41.3494 44 38.2495 44 35.2495 44C34.9495 44 34.6494 44 34.3494 44C33.6494 43.9 33.1494 43.4 33.1494 42.8C33.1494 42.1 33.6494 41.6 34.3494 41.6C34.5494 41.6 34.7495 41.6 34.9495 41.6C38.0495 41.6 41.0494 41.6 44.1494 41.6C44.4494 41.6 44.7494 41.6 45.0494 41.5C46.3494 41.3 47.2494 40 47.0494 38.7C46.8494 37.3 45.8495 36.6 44.2495 36.6C39.7495 36.6 35.3495 36.6 30.8495 36.6C30.4495 36.6 30.0495 36.5 29.6495 36.4C26.1495 35 22.5495 35 19.0495 36.3C16.1495 37.4 14.0495 39.3 12.5495 42C15.7495 45.2 18.9495 48.4 22.2495 51.7ZM16.1495 61C17.6495 59.4 19.2495 57.7 20.8495 56.1C21.6495 55.3 21.6495 54.7 20.8495 53.9C17.4495 50.5 14.0495 47.1 10.6495 43.7C9.84945 42.9 9.24945 42.9 8.54945 43.7C7.04945 45.2 5.44945 46.8 3.94945 48.3C3.84945 48.4 3.74945 48.5 3.64945 48.7C7.64945 52.7 11.7495 56.8 16.1495 61Z" fill="#F7B66A"/>
<path d="M30.3496 42.5C30.3496 43.2 29.7496 43.7 29.1496 43.7C28.4496 43.7 27.8496 43.1 27.8496 42.4C27.8496 41.7 28.4496 41.2 29.1496 41.2C29.8496 41.3 30.3496 41.9 30.3496 42.5Z" fill="#F7B66A"/>
<path d="M39.0495 0C39.8495 0.2 40.6495 0.3 41.3495 0.5C47.7495 2.2 51.8495 8 51.5495 14.7C51.2495 20.9 46.4495 26.2 40.1495 27.3C32.4495 28.7 25.1495 23.3 24.1495 15.5C23.1495 7.9 28.5495 1.1 36.1495 0.1C36.2495 0.1 36.3495 0 36.5495 0C37.3495 0 38.1495 0 39.0495 0ZM37.7495 25C43.9495 25 48.9495 20 49.0495 13.8C49.0495 7.6 44.0495 2.5 37.9495 2.5C31.7495 2.5 26.6495 7.5 26.6495 13.7C26.5495 19.9 31.5495 25 37.7495 25Z" fill="#F7B66A"/>
<path d="M41.7494 16.6L43.1494 17.9C42.6494 18.5 41.9494 19 41.1494 19.3C40.3494 19.6 39.4494 19.8 38.5494 19.8C37.5494 19.8 36.7494 19.6 35.8494 19.3C35.0494 18.9 34.3494 18.5 33.7494 17.8C33.1494 17.2 32.7494 16.4 32.5494 15.6H30.6494V14.4H32.3494C32.3494 14.3 32.3494 14.1 32.3494 13.8C32.3494 13.5 32.3494 13.4 32.3494 13.2H30.6494V12H32.5494C32.7494 11.2 33.1494 10.4 33.7494 9.8C34.3494 9.2 35.0494 8.7 35.8494 8.3C36.6494 8.1 37.5494 8 38.5494 8C39.4494 8 40.3494 8.2 41.1494 8.5C41.9494 8.8 42.5494 9.3 43.1494 9.9L41.7494 11.2C40.9494 10.3 39.8494 9.8 38.6494 9.8C37.7494 9.8 36.9494 10 36.3494 10.4C35.6494 10.8 35.1494 11.4 34.8494 12.1H39.5494V13.3H34.5494C34.5494 13.5 34.5494 13.7 34.5494 13.9C34.5494 14.1 34.5494 14.2 34.5494 14.5H39.5494V15.7H34.8494C35.1494 16.4 35.6494 17 36.3494 17.4C37.0494 17.8 37.7494 18 38.6494 18C39.8494 18 40.8494 17.5 41.7494 16.6Z" fill="#F7B66A"/>
</g>
<defs>
<clipPath id="clip0_53_222">
<rect width="63.9" height="64" fill="white" transform="translate(0.549805)"/>
</clipPath>
</defs>
</svg>
