<svg width="65" height="64" viewBox="0 0 65 64" fill="none" xmlns="http://www.w3.org/2000/svg">
<path d="M22.8997 12.6C15.3997 12 9.29974 17.3 8.09974 24.2C6.99974 31.6 11.6997 38.5 18.9997 40V36.2C18.3997 35.3 17.9997 34.3 17.5997 33.2C18.0997 33.1 18.5997 33.1 19.0997 33C19.0997 32.2 19.3997 31.4 19.8997 30.8C18.9997 30.9 18.0997 31 17.0997 31.1C16.9997 29.9 16.7997 28.7 16.6997 27.5C18.0997 27.5 19.4997 27.5 20.8997 27.5C20.8997 28.3 20.8997 29 20.8997 29.8C21.4997 29.4 22.2997 29.1 23.0997 29.1C23.0997 28.6 23.0997 28 23.0997 27.5C24.4997 27.5 25.8997 27.5 27.2997 27.5C27.1997 28 27.1997 28.6 27.0997 29.1H29.2997C29.3997 28.6 29.3997 28.1 29.4997 27.5C30.8997 27.5 32.1997 27.5 33.7997 27.5C33.6997 28 33.4997 28.6 33.3997 29.1H35.5997C36.3997 24.6 35.2997 20.5 32.0997 17C29.4997 14.3 26.4997 12.9 22.8997 12.6ZM16.6997 15.7C16.6997 15.8 16.7997 15.8 16.7997 15.9C16.2997 16.9 15.7997 18 15.2997 19.1C14.6997 18.9 13.9997 18.6 13.2997 18.4C13.2997 18.3 13.2997 18.3 13.1997 18.2C14.4997 17.4 15.5997 16.6 16.6997 15.7ZM11.9997 20.1C12.9997 20.5 13.8997 20.9 14.8997 21.2C14.6997 22.6 14.5997 23.9 14.3997 25.3C12.9997 25.3 11.6997 25.3 10.1997 25.3C10.2997 23.4 10.8997 21.7 11.9997 20.1ZM11.9997 32.7C10.9997 31.1 10.3997 29.4 10.1997 27.5C11.5997 27.5 12.9997 27.5 14.3997 27.5C14.5997 28.9 14.6997 30.2 14.8997 31.6C13.8997 32 12.8997 32.4 11.9997 32.7ZM16.8997 37C15.4997 36.4 14.3997 35.5 13.2997 34.4C13.9997 34.1 14.6997 33.9 15.2997 33.6C15.8997 34.8 16.3997 35.9 16.8997 37ZM20.6997 25.3C19.2997 25.3 17.9997 25.3 16.4997 25.3C16.5997 24.1 16.7997 22.9 16.8997 21.7C18.1997 21.9 19.3997 22 20.6997 22.1C20.6997 23.2 20.6997 24.2 20.6997 25.3ZM20.6997 20C19.6997 19.9 18.5997 19.8 17.4997 19.7C18.1997 17.8 18.9997 16.2 20.6997 15C20.6997 16.7 20.6997 18.3 20.6997 20ZM22.8997 20C22.8997 18.3 22.8997 16.7 22.8997 14.9C24.5997 16.1 25.3997 17.7 26.0997 19.6C25.0997 19.8 23.9997 19.9 22.8997 20ZM22.8997 25.3C22.8997 24.3 22.8997 23.2 22.8997 22.2C24.0997 22.1 25.2997 21.9 26.6997 21.8C26.7997 23 26.9997 24.2 27.0997 25.4C25.6997 25.3 24.2997 25.3 22.8997 25.3ZM26.7997 15.8C28.1997 16.4 29.2997 17.2 30.3997 18.4C29.6997 18.7 28.9997 18.9 28.3997 19.2C27.7997 18 27.2997 16.9 26.7997 15.8ZM29.2997 25.3C29.0997 24 28.9997 22.6 28.7997 21.2C29.6997 20.8 30.6997 20.5 31.6997 20.1C32.6997 21.7 33.2997 23.4 33.4997 25.3C32.0997 25.3 30.6997 25.3 29.2997 25.3Z" fill="#F7B66A"/>
<path d="M19 61.6C13.6 61.6 8.2 61.6 2.7 61.6C2.7 43.9 2.7 26.1 2.7 8.39998C2.9 8.39998 3.1 8.39998 3.3 8.39998C15.4 8.39998 27.4 8.39998 39.5 8.39998C40.7 8.39998 41 8.69998 41 9.89998C41 16.3 41 22.8 41 29.2H43.1C43.1 22.7 43.1 16.2 43.1 9.69998C43.1 7.59998 41.8 6.29998 39.7 6.19998C39.4 6.19998 39.2 6.19998 38.8 6.19998C38.8 4.89998 38.8 3.69998 38.8 2.39998C38.8 0.599983 37.7 -0.300017 36 0.0999831C25 2.09998 14.1 4.09998 3.1 6.09998C3 6.09998 2.9 6.09998 2.8 6.09998C1.7 6.19998 0.9 6.69998 0.5 7.79998C0.5 25.9 0.5 44 0.5 62.1C1 63.3 1.9 63.8 3.2 63.8C8.8 63.8 14.4 63.8 20.1 63.8C19.5 63.2 19.1 62.4 19 61.6ZM36.7 2.09998C36.7 3.49998 36.7 4.79998 36.7 6.09998C29.5 6.09998 22.3 6.09998 15.1 6.09998V5.99998C22.3 4.69998 29.5 3.39998 36.7 2.09998Z" fill="#F7B66A"/>
<path d="M8.60039 47.7C8.50039 47.7 8.30039 47.7 8.20039 47.7C7.40039 47.7 6.90039 48.2 6.90039 48.8C6.90039 49.4 7.40039 49.8 8.20039 49.8C11.8004 49.8 15.4004 49.8 19.0004 49.8V47.7C15.5004 47.7 12.1004 47.7 8.60039 47.7Z" fill="#F7B66A"/>
<path d="M12.7003 54.2C11.2003 54.2 9.60031 54.2 8.10031 54.2C7.20031 54.2 6.60031 53.4 7.00031 52.7C7.20031 52.4 7.70031 52.1 8.00031 52.1C11.1003 52.1 14.3003 52.1 17.4003 52.1C18.1003 52.1 18.5003 52.5 18.6003 53.1C18.6003 53.7 18.2003 54.2 17.4003 54.2C15.9003 54.2 14.3003 54.2 12.7003 54.2Z" fill="#F7B66A"/>
<path d="M25.0004 47.7C25.0004 45.7 25.0004 43.7 25.0004 41.6C25.0004 40 25.9004 39.2 27.4004 39.2C30.8004 39.2 34.1004 39.2 37.5004 39.2C39.0004 39.2 39.9004 40.1 39.9004 41.6C39.9004 45.7 39.9004 49.8 39.9004 53.9C39.9004 55.4 39.0004 56.3 37.5004 56.3C34.1004 56.3 30.7004 56.3 27.3004 56.3C25.8004 56.3 25.0004 55.4 24.9004 53.9C25.0004 51.8 25.0004 49.8 25.0004 47.7ZM29.3004 49.3C28.4004 47.1 28.7004 45.4 30.3004 44.2C31.7004 43.2 33.5004 43.2 34.8004 44.3C36.3004 45.5 36.6004 47.2 35.6004 49.3C36.3004 49.6 37.0004 50 37.7004 50.3C37.7004 47.3 37.7004 44.4 37.7004 41.4C34.1004 41.4 30.6004 41.4 27.1004 41.4C27.1004 44.4 27.1004 47.3 27.1004 50.3C27.9004 49.9 28.6004 49.6 29.3004 49.3ZM37.8004 54.1C37.7004 53.2 37.2004 52.6 36.6004 52.1C35.7004 51.4 34.6004 51.1 33.5004 51C31.6004 50.8 29.8004 51.1 28.3004 52.3C27.7004 52.7 27.3004 53.3 27.3004 54.1C30.7004 54.1 34.2004 54.1 37.8004 54.1ZM34.1004 47.2C34.1004 46.3 33.4004 45.6 32.5004 45.6C31.6004 45.6 30.9004 46.3 30.9004 47.2C30.9004 48.1 31.6004 48.8 32.5004 48.8C33.4004 48.8 34.1004 48.1 34.1004 47.2Z" fill="#F7B66A"/>
<path d="M42.7 35C48 35 53.3 35 58.6 35C58.8 35 59.1 35 59.3 35C59.8 35.1 60.2 35.5 60.2 36C60.2 36.5 59.8 37 59.3 37.1C59.1 37.1 58.9 37.1 58.7 37.1C48 37.1 37.2 37.1 26.5 37.1C26.3 37.1 26.2 37.1 26 37.1C25.4 37 25 36.6 25 36C25 35.4 25.4 35 26 35C26.2 35 26.4 35 26.6 35C32 35 37.4 35 42.7 35Z" fill="#F7B66A"/>
<path d="M51.2002 41.3C49.0002 41.3 46.7002 41.3 44.5002 41.3C43.7002 41.3 43.2002 40.9 43.2002 40.2C43.2002 39.6 43.7002 39.1 44.5002 39.1C49.0002 39.1 53.4002 39.1 57.9002 39.1C58.8002 39.1 59.3002 39.6 59.2002 40.3C59.1002 40.9 58.7002 41.2 58.0002 41.2C55.7002 41.4 53.4002 41.3 51.2002 41.3Z" fill="#F7B66A"/>
<path d="M53.8 54.2C52.5 54.2 51.1 54.2 49.8 54.2C49 54.2 48.5 53.8 48.5 53.1C48.5 52.5 49 52.1 49.8 52.1C52.5 52.1 55.2 52.1 57.9 52.1C58.7 52.1 59.1 52.5 59.1 53.2C59.1 53.9 58.6 54.2 57.8 54.2C56.5 54.2 55.2 54.2 53.8 54.2Z" fill="#F7B66A"/>
<path d="M53.8 45.6C52.4 45.6 51.1 45.6 49.7 45.6C48.9 45.6 48.5 45.2 48.5 44.6C48.5 44 49 43.5 49.7 43.5C52.4 43.5 55.2 43.5 57.9 43.5C58.7 43.5 59.1 43.9 59.1 44.6C59.1 45.2 58.7 45.6 57.9 45.6C56.5 45.6 55.2 45.6 53.8 45.6Z" fill="#F7B66A"/>
<path d="M53.8 49.9C52.4 49.9 51.1 49.9 49.7 49.9C48.9 49.9 48.5 49.5 48.5 48.9C48.5 48.3 49 47.8 49.7 47.8C52.4 47.8 55.2 47.8 57.9 47.8C58.7 47.8 59.1 48.2 59.1 48.9C59.1 49.6 58.7 49.9 57.8 49.9C56.5 49.9 55.2 49.9 53.8 49.9Z" fill="#F7B66A"/>
<path d="M53.9006 56.3C55.2006 56.3 56.5006 56.3 57.8006 56.3C58.7006 56.3 59.2006 56.7 59.2006 57.4C59.2006 58.1 58.7006 58.5 57.9006 58.5C55.2006 58.5 52.6006 58.5 49.9006 58.5C49.1006 58.5 48.7006 58.2 48.6006 57.6C48.5006 56.9 49.0006 56.4 49.8006 56.4C51.1006 56.3 52.5006 56.3 53.9006 56.3Z" fill="#F7B66A"/>
<path d="M44.8002 54.2C43.7002 54.2 43.2002 53.8 43.2002 53.1C43.2002 52.4 43.7002 52 44.8002 52C45.9002 52 46.4002 52.3 46.4002 53.1C46.4002 53.8 45.9002 54.2 44.8002 54.2Z" fill="#F7B66A"/>
<path d="M44.8002 45.6C43.7002 45.6 43.2002 45.3 43.2002 44.5C43.2002 43.8 43.7002 43.4 44.8002 43.4C45.0002 43.4 45.3002 43.4 45.5002 43.4C46.1002 43.5 46.4002 44 46.4002 44.5C46.4002 45.1 46.0002 45.5 45.3002 45.5C45.1002 45.6 44.9002 45.6 44.8002 45.6Z" fill="#F7B66A"/>
<path d="M44.7002 49.9C43.7002 49.9 43.2002 49.6 43.2002 48.9C43.2002 48.2 43.7002 47.8 44.8002 47.8C45.1002 47.8 45.3002 47.8 45.6002 47.9C46.1002 48 46.5002 48.5 46.4002 49C46.4002 49.5 46.0002 49.9 45.4002 50C45.2002 49.9 44.9002 49.9 44.7002 49.9Z" fill="#F7B66A"/>
<path d="M44.8002 56.3C45.0002 56.3 45.2002 56.3 45.4002 56.3C46.0002 56.4 46.4002 56.8 46.4002 57.3C46.4002 57.8 46.0002 58.3 45.5002 58.4C45.1002 58.4 44.7002 58.4 44.3002 58.4C43.7002 58.4 43.2002 57.9 43.2002 57.3C43.2002 56.7 43.6002 56.3 44.3002 56.3C44.4002 56.3 44.6002 56.3 44.8002 56.3Z" fill="#F7B66A"/>
<path d="M64.4002 61.2C64.4002 60.9 64.5002 60.6 64.5002 60.3C64.5002 51.6 64.5002 42.9 64.5002 34.2C64.5002 32 63.2002 30.7 61.0002 30.7C59.8002 30.7 58.6002 30.7 57.4002 30.7H30.8002C30.7002 30.7 30.7002 30.7 30.6002 30.7H23.9002C22.2002 30.7 20.7002 32.1 20.7002 33.9V49.9C20.7002 49.9 20.7002 49.9 20.8002 49.9C20.8002 53.7 20.8002 57.4 20.8002 61.2C21.1002 62.7 22.3002 63.8 23.9002 63.8C30.5002 63.8 37.1002 63.8 43.7002 63.8H61.4002C63.2002 63.6 64.2002 62.4 64.4002 61.2ZM62.4002 60.2C62.4002 61.3 62.1002 61.6 60.9002 61.6C48.7002 61.6 36.5002 61.6 24.3002 61.6C23.1002 61.6 22.8002 61.3 22.8002 60.1C22.8002 51.5 22.8002 42.9 22.8002 34.3C22.8002 33.1 23.1002 32.8 24.3002 32.8C30.4002 32.8 36.5002 32.8 42.6002 32.8C48.7002 32.8 54.7002 32.8 60.8002 32.8C62.0002 32.8 62.3002 33.1 62.3002 34.3C62.4002 42.9 62.4002 51.5 62.4002 60.2Z" fill="#F7B66A"/>
</svg>
