<svg width="65" height="58" viewBox="0 0 65 58" fill="none" xmlns="http://www.w3.org/2000/svg">
<path d="M42.4001 41.8116C40.8001 42.8048 39.8001 42.8048 38.2001 41.8116C37.4001 42.1096 36.8001 42.3082 36.1001 42.5068C35.5001 42.6062 35.0001 42.3082 34.9001 41.7123C34.8001 41.1164 35.1001 40.8185 35.8001 40.6199C36.2001 40.5205 36.7001 40.3219 37.0001 40.024C37.7001 39.4281 38.4001 39.3288 39.1001 40.024C39.9001 40.8185 40.7001 40.8185 41.5001 40.024C42.2001 39.3288 42.9001 39.3288 43.6001 40.024C43.9001 40.3219 44.4001 40.5205 44.8001 40.6199C45.4001 40.8185 45.8001 41.1164 45.7001 41.613C45.6001 42.2089 45.2001 42.5068 44.5001 42.4075C43.8001 42.3082 43.1001 42.1096 42.4001 41.8116Z" fill="#F7B66A"/>
<path d="M42.4001 46.6781C40.9001 47.6712 39.7001 47.6712 38.2001 46.6781C37.5001 46.976 36.8001 47.1746 36.1001 47.3733C35.4001 47.5719 35.0001 47.1746 34.9001 46.5787C34.8001 45.9829 35.2001 45.6849 35.8001 45.4863C36.2001 45.387 36.6001 45.1883 37.0001 44.8904C37.7001 44.2945 38.4001 44.1952 39.1001 44.8904C39.9001 45.6849 40.7001 45.6849 41.5001 44.8904C42.2001 44.1952 42.9001 44.2945 43.6001 44.8904C43.9001 45.1883 44.4001 45.387 44.8001 45.4863C45.4001 45.6849 45.8001 45.9829 45.7001 46.5787C45.6001 47.0753 45.2001 47.4726 44.6001 47.3733C43.9001 47.1746 43.2001 46.976 42.4001 46.6781Z" fill="#F7B66A"/>
<path d="M11.3001 29.5959C10.0001 30.589 8.50012 30.589 7.10012 29.5959C6.40012 29.8938 5.80012 30.0925 5.10012 30.2911C4.40012 30.4897 3.90012 30.0925 3.80012 29.4966C3.70012 28.9007 4.10012 28.6027 4.80012 28.4041C5.20012 28.3048 5.60012 28.1062 5.90012 27.8082C6.60012 27.113 7.30012 27.113 8.00012 27.8082C8.80012 28.6027 9.60012 28.6027 10.4001 27.8082C11.1001 27.113 11.8001 27.113 12.5001 27.8082C12.8001 28.1062 13.3001 28.3048 13.7001 28.4041C14.3001 28.6027 14.6001 28.9007 14.6001 29.3972C14.6001 29.8938 14.1001 30.2911 13.6001 30.1918C12.9001 30.0925 12.1001 29.7945 11.3001 29.5959Z" fill="#F7B66A"/>
<path d="M11.3001 34.363C10.0001 35.3562 8.50012 35.3562 7.10012 34.363C6.30012 34.6609 5.70012 34.8596 5.00012 35.0582C4.40012 35.1575 3.90012 34.8596 3.80012 34.2637C3.70012 33.7671 4.10012 33.3699 4.80012 33.1712C5.20012 33.0719 5.60012 32.8733 6.00012 32.5753C6.70012 31.9794 7.40012 31.8801 8.10012 32.5753C9.00012 33.4692 9.70012 33.3698 10.6001 32.5753C11.2001 31.9794 12.0001 31.9794 12.6001 32.5753C13.0001 32.8733 13.4001 33.0719 13.9001 33.2705C14.5001 33.4692 14.8001 33.7671 14.8001 34.2637C14.7001 34.7603 14.3001 35.1575 13.7001 35.0582C12.8001 34.9589 12.1001 34.6609 11.3001 34.363Z" fill="#F7B66A"/>
<path d="M28.9999 41.3151C28.4999 41.1164 27.8999 40.9178 27.3999 40.6199C27.0999 40.4212 26.8999 40.4212 26.5999 40.6199C25.3999 41.4144 24.0999 41.4144 22.8999 40.6199C22.5999 40.4212 22.3999 40.5205 22.0999 40.6199C21.4999 40.9178 20.8999 41.1164 20.2999 41.1164C19.7999 41.2157 19.3999 40.7192 19.3999 40.2226C19.3999 39.726 19.6999 39.3288 20.1999 39.2294C20.7999 39.1301 21.1999 38.9315 21.5999 38.5342C22.0999 38.0377 22.8999 38.0377 23.4999 38.5342C24.5999 39.5274 24.9999 39.5274 26.0999 38.5342C26.6999 37.9383 27.3999 38.0377 28.0999 38.5342C28.3999 38.8322 28.8999 39.0308 29.2999 39.1301C29.8999 39.3288 30.2999 39.6267 30.1999 40.1233C30.0999 40.9178 29.6999 41.2157 28.9999 41.3151Z" fill="#F7B66A"/>
<path d="M28.9998 36.4486C28.4998 36.25 27.8998 36.0514 27.3998 35.7534C27.0998 35.5548 26.8998 35.5548 26.5998 35.7534C25.2998 36.5479 24.0998 36.5479 22.7998 35.7534C22.4998 35.5548 22.3998 35.6541 22.0998 35.7534C21.4998 36.0514 20.8998 36.25 20.1998 36.3493C19.6998 36.4486 19.2998 35.952 19.2998 35.4555C19.2998 34.9589 19.5998 34.5616 20.0998 34.4623C20.6998 34.363 21.0998 34.1644 21.4998 33.7671C21.9998 33.1712 22.7998 33.2705 23.3998 33.7671C24.3998 34.7603 24.9998 34.7603 25.8998 33.7671C26.4998 33.1712 27.1998 33.1712 27.8998 33.7671C28.2998 34.0651 28.6998 34.2637 29.1998 34.4623C29.7998 34.6609 30.0998 34.9589 30.0998 35.4555C30.0998 36.0514 29.6998 36.3493 28.9998 36.4486Z" fill="#F7B66A"/>
<path d="M62.4 17.2808C57.8 15.6918 53.3 14.0034 48.7 12.4144C48.3 12.3151 47.7 12.3151 47.3 12.4144C43.2 13.8048 39 15.2945 35 16.7843C33.3 17.4795 31.8 17.6781 30.1 16.7843C29.6 16.4863 29 16.2877 28.5 16.1884C28.2 16.7843 27.9 17.3801 27.6 17.8767C28.8 18.274 30 18.6712 31.2 19.1678C31.4 19.2671 31.6 19.5651 31.6 19.7637C31.7 20.0617 31.6 20.4589 31.6 20.8562C31.6 32.1781 31.6 43.5 31.6 54.8219C31.6 55.1199 31.6 55.3185 31.6 55.7158C29 54.8219 26.4 53.8288 23.9 52.9349C22.1 52.2397 20.2 51.6438 18.4 50.9486C18 50.8493 17.9 50.6507 17.9 50.2534C17.9 43.0034 17.9 35.7534 17.9 28.5034L17 29.1986L16 28.5034C16 35.6541 16 42.9041 16 50.0548C16 50.5514 15.9 50.8493 15.4 50.9486C11.4 52.339 7.3 53.8288 3.3 55.2192C2.5 55.5171 2.4 55.4178 2.4 54.524C2.4 48.7637 2.4 42.9041 2.4 37.1438C2.4 31.3836 2.4 25.6233 2.4 19.863C2.4 19.2671 2.6 19.0685 3.1 18.8699C4.1 18.5719 5.2 18.1747 6.2 17.7774C5.9 17.1815 5.6 16.6849 5.4 16.089C4.4 16.387 3.5 16.7843 2.5 17.0822C0.9 17.8767 0.5 18.4726 0.5 20.0617C0.5 31.3836 0.5 42.7055 0.5 54.0274C0.5 54.4247 0.5 54.8219 0.5 55.2192C0.6 56.7089 1.9 57.7021 3.4 57.3048C3.6 57.2055 3.8 57.2055 4 57.1062C8.1 55.6164 12.3 54.1267 16.4 52.7363C16.7 52.637 17.2 52.637 17.5 52.7363C22.3 54.4247 27 56.113 31.8 57.8014C32.1 57.9007 32.6 58 32.9 57.9007C34.9 57.2055 36.9 56.5103 38.8 55.8151C39.4 55.6164 39.6 55.1199 39.4 54.6233C39.2 54.1267 38.7 53.9281 38.2 54.1267C37.7 54.226 37.3 54.4247 36.8 54.6233C35.7 55.0206 34.6 55.4178 33.4 55.8151C33.4 55.5171 33.4 55.3185 33.4 55.2192C33.4 43.5 33.4 31.7808 33.4 20.0617C33.4 19.6644 33.5 19.3664 33.9 19.2671C36 18.5719 38 17.7774 40.1 17.0822C40.5 16.8836 41 16.7843 41.4 16.5856C41.4 17.6781 41.2 18.0753 40.3 18.4726C39.3 18.8699 38.5 19.5651 38 20.4589C37.1 22.2466 38 24.0343 40 24.3322C40.4 24.4315 40.9 24.5308 41.3 24.6301C42.2 24.9281 42.4 25.3253 42 26.2192C41.6 27.3117 41.1 28.5034 40.8 29.6952C40 33.0719 41.7 35.7534 45.1 36.4486C45.7 36.548 46.4 36.6473 47 36.6473C47 36.7466 47.1 36.7466 47.1 36.8459C47.1 41.4144 47.1 45.9829 47.1 50.5514C47.1 50.75 46.8 50.9486 46.6 51.048C45.3 51.5445 43.9 52.0411 42.6 52.5377C41.9 52.8356 41.6 53.2329 41.7 53.8288C41.9 54.4247 42.4 54.524 43.2 54.3254C44.6 53.8288 46.1 53.3322 47.5 52.8356C47.8 52.7363 48.2 52.7363 48.5 52.8356C52.8 54.3254 57 55.8151 61.3 57.3048C61.8 57.5034 62.4 57.5034 62.9 57.4041C63.8 57.2055 64.2 56.5103 64.5 55.8151C64.5 43.5993 64.5 31.3836 64.5 19.1678C64.1 18.1747 63.4 17.6781 62.4 17.2808ZM46.3 34.7603C44.3 34.661 42.7 33.5685 42.5 31.8801C42.4 31.0856 42.5 30.1918 42.7 29.3973C42.9 28.5034 43.3 27.6096 43.7 26.8151C44.4 25.0274 43.9 23.5377 42 22.8425C41.4 22.6438 40.8 22.5445 40.3 22.3459C39.6 22.1473 39.3 21.75 39.7 21.1541C40 20.6575 40.5 20.2603 41 20.0617C42.7 19.3664 43.4 18.0753 43.3 16.387C43.3 15.7911 43.5 15.5925 44 15.4932C45 15.1952 46 14.798 47 14.4007C47 14.6986 47 14.8973 47 15.0959C47 21.3527 47 27.7089 47 33.9658C47.1 34.661 46.9 34.7603 46.3 34.7603ZM58.9 53.9281C58.7 54.226 58.5 54.3253 58.1 54.226C55.2 53.1336 52.3 52.1404 49.4 51.1473C49.1 51.048 48.9 50.9486 48.9 50.5514C48.9 45.8836 48.9 41.2158 48.9 36.548C48.9 36.4486 48.9 36.4486 48.9 36.3493C50.5 35.8527 52.1 35.3562 53.8 34.9589C55.3 34.5617 55.8 34.7603 56.4 35.8527C57 36.9452 56.8 37.7397 55.9 38.8322C54.4 40.5206 53.6 42.5069 54.1 44.7911C54.3 45.9829 55.1 46.7774 56.1 47.4726C56.9 48.0685 57.8 48.5651 58.4 49.2603C59.8 50.6507 59.9 52.2397 58.9 53.9281ZM62.6 54.8219C62.6 55.7158 62.5 55.7158 61.7 55.4178C61.3 55.3185 61 55.1199 60.6 55.0206C60.6 55.0206 60.5 54.9212 60.6 55.0206C60.9 54.226 61.2 53.4315 61.4 52.637C61.8 50.4521 60.9 48.7637 59.3 47.3733C58.7 46.8767 58 46.3801 57.4 45.9829C56.2 45.1884 55.7 44.2945 56 42.9041C56.2 41.8117 56.7 40.7192 57.5 39.9247C59.4 38.0377 59 34.7603 56.7 33.3699C55.8 32.8733 54.9 32.8733 53.9 33.0719C52.5 33.3699 51.1 33.8664 49.6 34.2637C49.4 34.363 49.2 34.363 48.9 34.4623C48.9 27.8082 48.9 21.2534 48.9 14.5993C49.7 14.8973 50.5 15.1952 51.3 15.4932C54.8 16.7843 58.3 17.976 61.8 19.2671C62.3 19.4658 62.5 19.6644 62.5 20.161C62.6 31.6815 62.6 43.2021 62.6 54.8219Z" fill="#F7B66A"/>
<path d="M16.9999 27.113L16.3999 26.7158C15.9999 26.4178 5.8999 18.7705 5.8999 11.024C5.8999 4.96575 10.8999 0 16.8999 0C20.1999 0 23.2999 1.48973 25.3999 3.9726C25.6999 4.36986 25.6999 4.96575 25.2999 5.2637C24.8999 5.56164 24.2999 5.56164 23.9999 5.16438C22.1999 3.07877 19.6999 1.78767 16.8999 1.78767C11.7999 1.78767 7.6999 5.85959 7.6999 10.9247C7.6999 16.7842 14.7999 22.9418 16.8999 24.6301C18.9999 22.8425 26.0999 16.1884 26.0999 10.9247C26.0999 10.4281 26.4999 10.0308 26.9999 10.0308C27.4999 10.0308 27.8999 10.4281 27.8999 10.9247C27.8999 17.976 17.8999 26.2192 17.4999 26.5171L16.9999 27.113Z" fill="#F7B66A"/>
<path d="M23.5998 11.024C23.5998 14.5993 20.5998 17.5788 16.8998 17.5788C13.1998 17.5788 10.2998 14.5993 10.2998 10.9247C10.2998 7.25001 13.2998 4.36987 16.9998 4.36987C20.5998 4.36987 23.5998 7.34933 23.5998 11.024ZM12.1998 10.9247C12.1998 13.5069 14.2998 15.6918 16.8998 15.6918C19.4998 15.6918 21.6998 13.5069 21.6998 10.9247C21.6998 8.34248 19.4998 6.15754 16.8998 6.15754C14.3998 6.25686 12.1998 8.34248 12.1998 10.9247Z" fill="#F7B66A"/>
</svg>
