<svg width="65" height="64" viewBox="0 0 65 64" fill="none" xmlns="http://www.w3.org/2000/svg">
<path d="M31.9 0C32.3 0 32.7 0 33.1 0C33.7 0.2 34.3 0.4 34.9 0.7C44.5 6 54.1 11.3 63.7 16.7C64 16.9 64.2 17.2 64.5 17.4C64.5 18.6 64.5 19.9 64.5 21.1C63.9 23.1 62.6 24.1 60.5 24.2C60.3 24.2 60.1 24.4 60 24.6C59.1 25.8 58.3 27 57.5 28.2C57.1 28.7 57 29.2 57 29.7C57 36.4 57 43.1 57 49.8C57 51.2 57.3 52.4 58.2 53.5C58.7 54.1 59.2 54.7 59.5 55.4C60 56.3 60.6 56.6 61.6 56.5C63 56.3 63.9 56.8 64.5 58.1C64.5 59.5 64.5 60.8 64.5 62.2C64 63.5 63.1 64 61.8 64C42.3 64 22.8 64 3.3 64C3.1 64 2.9 64 2.7 64C1.6 63.9 0.7 63 0.6 61.9C0.6 60.8 0.6 59.7 0.6 58.7C0.6 57.5 1.5 56.6 2.7 56.6C3.2 56.6 3.7 56.6 4.3 56.6C4.7 56.6 4.9 56.5 5.1 56.2C6 54.9 6.9 53.7 7.8 52.4C8 52.1 8.1 51.8 8.1 51.5C8.1 44.2 8.1 36.8 8.1 29.5C8.1 29.2 8 28.8 7.8 28.5C7 27.3 6.1 26.1 5.2 24.8C5 24.5 4.7 24.3 4.3 24.3C2.1 24.1 0.5 22.5 0.5 20.4C0.5 19.6 0.5 18.8 0.5 18C0.5 17.3 0.7 16.9 1.3 16.6C5.6 14.2 9.9 11.9 14.1 9.5C14.3 9.4 14.5 9.3 14.7 9.2C15.2 9.1 15.5 9.2 15.8 9.6C16 10 16 10.4 15.6 10.7C15.4 10.9 15.2 11 15 11.1C11.9 12.8 8.8 14.5 5.7 16.2C5.5 16.3 5.4 16.4 5.1 16.6C23.4 16.6 41.5 16.6 59.7 16.6C59.5 16.5 59.4 16.4 59.3 16.3C51 11.7 42.5 7 34.1 2.4C33 1.8 32 1.8 30.9 2.4C28.4 3.8 25.9 5.2 23.4 6.5C22.1 7.2 20.7 8 19.4 8.7C18.9 9 18.4 8.8 18.1 8.4C17.8 7.9 18 7.4 18.5 7.1C18.6 7 18.8 7 18.9 6.9C21.8 5.3 24.7 3.7 27.6 2.1C29 1.4 30.4 0.7 31.9 0ZM49.5 29.5C49.5 29.8 49.5 30 49.5 30.2C49.5 33.4 49.5 36.6 49.5 39.8C49.5 40.1 49.5 40.4 49.4 40.6C49.2 40.9 48.8 41.2 48.5 41.1C48.2 41.1 47.9 40.7 47.7 40.4C47.6 40.3 47.7 40 47.7 39.8C47.7 36.3 47.7 32.9 47.7 29.4C47.7 29.1 47.6 28.7 47.4 28.5C46.5 27.2 45.6 26 44.7 24.7C44.5 24.4 44.3 24.3 43.9 24.3C36.4 24.3 28.8 24.3 21.3 24.3C21 24.3 20.7 24.5 20.6 24.7C19.7 26 18.7 27.3 17.8 28.6C17.6 28.8 17.5 29.2 17.5 29.5C17.5 36.8 17.5 44.2 17.5 51.5C17.5 51.8 17.6 52.2 17.8 52.4C18.7 53.7 19.6 54.9 20.5 56.2C20.7 56.5 20.9 56.6 21.3 56.6C28.8 56.6 36.3 56.6 43.9 56.6C44.3 56.6 44.5 56.5 44.7 56.2C45.5 55 46.4 53.8 47.3 52.6C47.6 52.2 47.8 51.7 47.7 51.2C47.7 49.1 47.7 47 47.7 44.8C47.7 44.2 48.1 43.8 48.6 43.8C49.1 43.8 49.5 44.2 49.6 44.7C49.6 44.9 49.6 45 49.6 45.2C49.6 47 49.6 48.8 49.6 50.6C49.6 50.8 49.6 51 49.6 51.3C51.5 51.3 53.3 51.3 55.2 51.3C55.2 44.1 55.2 36.8 55.2 29.6C53.2 29.5 51.4 29.5 49.5 29.5ZM32.5 62.1C42.2 62.1 51.9 62.1 61.6 62.1C61.8 62.1 61.9 62.1 62.1 62.1C62.5 62.1 62.7 62 62.7 61.5C62.7 60.8 62.7 60 62.7 59.3C62.7 58.4 62.7 58.4 61.7 58.4C42.3 58.4 22.8 58.4 3.4 58.4C3.3 58.4 3.1 58.4 3 58.4C2.6 58.4 2.4 58.5 2.4 58.9C2.4 59.7 2.4 60.4 2.4 61.2C2.4 62.1 2.4 62.1 3.3 62.1C13 62.1 22.8 62.1 32.5 62.1ZM2.4 18.6C2.4 19.3 2.4 20 2.4 20.7C2.5 21.5 3.1 22.1 3.9 22.3C4.2 22.4 4.5 22.4 4.8 22.4C23.3 22.4 41.8 22.4 60.3 22.4C60.6 22.4 60.8 22.4 61.1 22.4C61.9 22.3 62.4 21.8 62.6 21.1C62.7 20.3 62.7 19.6 62.7 18.8C42.5 18.6 22.5 18.6 2.4 18.6ZM15.5 51.2C15.5 43.9 15.5 36.7 15.5 29.5C13.6 29.5 11.8 29.5 9.9 29.5C9.9 36.7 9.9 43.9 9.9 51.2C11.8 51.2 13.6 51.2 15.5 51.2ZM18.4 56.5C17.7 55.5 17 54.5 16.3 53.6C16.1 53.3 15.8 53.1 15.4 53.1C13.8 53.1 12.3 53.2 10.7 53.1C9.7 53 9 53.3 8.5 54.2C8.1 55 7.5 55.7 6.9 56.5C10.9 56.5 14.6 56.5 18.4 56.5ZM46.6 56.4C50.4 56.4 54.1 56.4 57.9 56.4C57.1 55.3 56.4 54.3 55.7 53.3C55.6 53.2 55.4 53.1 55.2 53.1C53.3 53.1 51.3 53.1 49.4 53.1C49.2 53.1 49 53.1 48.9 53.3C48.2 54.3 47.4 55.3 46.6 56.4ZM7.1 24.2C7.9 25.3 8.6 26.4 9.4 27.4C9.5 27.5 9.7 27.5 9.8 27.5C11.7 27.5 13.7 27.5 15.6 27.5C15.8 27.5 16 27.5 16.1 27.4C16.9 26.4 17.6 25.3 18.4 24.2C14.6 24.2 10.9 24.2 7.1 24.2ZM46.6 24.2C47.3 25.2 48 26.2 48.7 27.2C48.9 27.4 49.2 27.6 49.4 27.6C50.9 27.6 52.5 27.5 54 27.6C55.1 27.7 55.8 27.4 56.3 26.4C56.7 25.6 57.3 25 57.8 24.2C54.1 24.2 50.5 24.2 46.6 24.2Z" fill="#F7B66A"/>
<path d="M32.5002 14.3C30.1002 14.3 28.2002 12.4 28.2002 9.99998C28.2002 7.59998 30.1002 5.69998 32.5002 5.59998C34.9002 5.59998 36.8002 7.59998 36.8002 9.89998C36.8002 12.4 34.9002 14.3 32.5002 14.3ZM32.5002 12.4C33.8002 12.4 34.9002 11.3 34.9002 9.99998C34.9002 8.69998 33.8002 7.59998 32.5002 7.59998C31.1002 7.59998 30.0002 8.69998 30.1002 10.1C30.1002 11.4 31.2002 12.4 32.5002 12.4Z" fill="#F7B66A"/>
<path d="M32.5002 29.6C38.4002 29.6 43.2002 34.4 43.2002 40.3C43.2002 46.2 38.4002 51 32.5002 51.1C26.6002 51.1 21.7002 46.3 21.7002 40.3C21.8002 34.4 26.6002 29.6 32.5002 29.6ZM23.6002 40.3C23.6002 45.2 27.5002 49.2 32.4002 49.2C37.3002 49.2 41.3002 45.2 41.3002 40.4C41.3002 35.5 37.4002 31.5 32.5002 31.5C27.6002 31.5 23.7002 35.4 23.6002 40.3Z" fill="#F7B66A"/>
<path d="M36.1 42.8L37.4 44C36.9 44.6 36.3 45 35.6 45.3C34.9 45.6 34.1 45.8 33.2 45.8C32.3 45.8 31.5 45.6 30.7 45.3C29.9 45 29.3 44.5 28.8 43.9C28.3 43.3 27.9 42.6 27.7 41.9H26V40.8H27.5C27.5 40.7 27.5 40.5 27.5 40.3C27.5 40.1 27.5 39.9 27.5 39.8H26V38.7H27.7C27.9 37.9 28.3 37.2 28.8 36.7C29.3 36.1 30 35.7 30.7 35.3C31.5 35 32.3 34.8 33.2 34.8C34.1 34.8 34.9 35 35.6 35.3C36.3 35.6 36.9 36 37.4 36.6L36.1 37.8C35.3 37 34.4 36.5 33.2 36.5C32.4 36.5 31.7 36.7 31.1 37.1C30.5 37.5 30 38 29.7 38.7H34.1V39.8H29.5C29.5 40 29.5 40.2 29.5 40.3C29.5 40.4 29.5 40.6 29.5 40.8H34.2V41.9H29.8C30.1 42.6 30.6 43.1 31.2 43.5C31.8 43.9 32.5 44.1 33.3 44.1C34.4 44.1 35.4 43.7 36.1 42.8Z" fill="#F7B66A"/>
</svg>
