<svg width="59" height="64" viewBox="0 0 59 64" fill="none" xmlns="http://www.w3.org/2000/svg">
<path d="M18.8498 10.4C19.4498 10.5 20.0498 10.6 20.7498 10.8C20.7498 8.10002 20.7498 5.30002 20.7498 2.60002C20.7498 2.00002 20.9498 1.80002 21.5498 1.80002C33.1498 1.80002 44.7498 1.80002 56.2498 1.80002C56.8498 1.90002 57.0498 2.00002 57.0498 2.60002C57.0498 5.50002 57.0498 8.40002 57.0498 11.3C57.0498 11.5 57.0498 11.8 57.1498 12C57.2498 12.5 57.6498 12.7 58.0498 12.7C58.4498 12.7 58.8498 12.4 58.8498 12C58.8498 11.8 58.8498 11.5 58.8498 11.3C58.8498 8.40002 58.8498 5.50002 58.8498 2.60002C58.8498 1.30002 58.4498 0.400024 57.1498 -0.0999756C44.9498 2.44156e-05 32.7498 2.44156e-05 20.4498 2.44156e-05C19.2498 0.500024 18.7498 1.50002 18.8498 2.80002C18.9498 5.30002 18.8498 7.90002 18.8498 10.4Z" fill="#F7B66A"/>
<path d="M58.9498 17C58.9498 16.8 58.9498 16.6 58.9498 16.4C58.8498 15.8 58.5498 15.6 58.0498 15.6C57.5498 15.6 57.1498 15.9 57.1498 16.4C57.1498 16.6 57.1498 16.9 57.1498 17.1C57.1498 25 57.1498 32.8 57.1498 40.7C57.1498 41 57.1498 41.2 57.1498 41.6C56.8498 41.6 56.5498 41.6 56.3498 41.6C53.4498 41.6 50.6498 41.6 47.7498 41.6C46.0498 41.6 45.2498 42.4 45.2498 44.1C45.2498 47 45.2498 49.9 45.2498 52.8C45.2498 53 45.2498 53.2 45.2498 53.4C45.0498 53.4 45.0498 53.4 44.9498 53.4C41.4498 53.4 38.0498 53.4 34.5498 53.4C34.6498 54.1 34.7498 54.9 34.7498 55.3C38.3498 55.3 41.9498 55.3 45.5498 55.3C46.3498 55.3 46.8498 55.1 47.3498 54.5C51.0498 50.8 54.7498 47.2 58.4498 43.5C58.9498 43 59.1498 42.6 59.1498 41.9C58.9498 33.7 58.9498 25.3 58.9498 17ZM46.9498 52C46.9498 51.4 46.9498 50.8 46.9498 50.2C46.9498 48.1 46.9498 46.1 46.9498 44C46.9498 43.6 47.0498 43.4 47.5498 43.4C50.1498 43.4 52.7498 43.4 55.3498 43.4C55.4498 43.4 55.5498 43.4 55.5498 43.4C52.6498 46.3 49.8498 49.1 46.9498 52Z" fill="#F7B66A"/>
<path d="M38.7498 23.3C33.7498 23.1 29.8498 19.1 30.0498 14.3C30.2498 9.2 34.3498 5.5 39.4498 5.6C44.2498 5.8 47.9498 9.9 47.7498 14.9C47.5498 19.6 43.4498 23.5 38.7498 23.3ZM45.8498 14.5C45.8498 10.7 42.7498 7.5 38.9498 7.5C35.0498 7.5 31.8498 10.6 31.8498 14.5C31.8498 18.3 35.0498 21.5 38.8498 21.5C42.7498 21.4 45.8498 18.3 45.8498 14.5Z" fill="#F7B66A"/>
<path d="M38.9496 27.7C42.7496 27.7 46.5496 27.7 50.3496 27.7C51.1496 27.7 51.4496 28 51.4496 28.6C51.4496 29.1 51.1496 29.5 50.6496 29.6C50.5496 29.6 50.4496 29.6 50.4496 29.6C42.7496 29.6 35.0496 29.6 27.4496 29.6C26.6496 29.6 26.3496 29.2 26.3496 28.5C26.4496 28 26.6496 27.7 27.1496 27.7C27.3496 27.7 27.5496 27.7 27.7496 27.7C31.4496 27.7 35.2496 27.7 38.9496 27.7Z" fill="#F7B66A"/>
<path d="M38.8499 36C35.0499 36 31.2499 36 27.4499 36C27.1499 36 26.6499 35.8 26.4499 35.6C26.0499 35.1 26.4499 34.3 27.1499 34.2C27.3499 34.2 27.5499 34.2 27.7499 34.2C35.2499 34.2 42.7499 34.2 50.1499 34.2C50.3499 34.2 50.5499 34.2 50.7499 34.2C51.2499 34.3 51.6499 34.7 51.6499 35.2C51.6499 35.7 51.2499 36.1 50.7499 36.1C49.5499 36.1 48.3499 36.1 47.1499 36.1C44.3499 36 41.6499 36 38.8499 36Z" fill="#F7B66A"/>
<path d="M33.5499 40.6C35.5499 40.6 37.6499 40.6 39.6499 40.6C40.4499 40.6 40.7499 40.9 40.8499 41.5C40.8499 42.1 40.4499 42.5 39.6499 42.5C35.5499 42.5 31.5499 42.5 27.4499 42.5C26.5499 42.5 26.1499 42.1 26.2499 41.4C26.3499 40.9 26.7499 40.7 27.2499 40.7C29.4499 40.6 31.5499 40.6 33.5499 40.6Z" fill="#F7B66A"/>
<path d="M36.0499 10.7C36.1499 10.7 36.3499 10.8 36.4499 10.8C38.6499 11.6 40.8499 12.5 42.9499 13.3C43.6499 13.6 43.9499 14 43.6499 14.6C43.4499 15.2 42.9499 15.3 42.2499 15.1C40.0499 14.3 37.8499 13.4 35.7499 12.6C35.2499 12.4 34.9499 12.1 35.0499 11.5C35.2499 11.1 35.5499 10.8 36.0499 10.7Z" fill="#F7B66A"/>
<path d="M39.8499 18.4C39.7499 18.4 39.5499 18.3 39.4499 18.3C38.3499 17.9 37.1499 17.4 36.0499 17C35.3499 16.7 35.1499 16.3 35.3499 15.8C35.5499 15.2 36.0499 15 36.7499 15.3C37.9499 15.7 39.0499 16.2 40.2499 16.6C40.7499 16.8 40.9499 17.1 40.8499 17.6C40.6499 18 40.3499 18.3 39.8499 18.4Z" fill="#F7B66A"/>
<path d="M33.35 57.2C32.95 57.2 32.55 57.2 32.15 57.2C32.15 56.8 32.15 56.5 32.15 56.2C32.15 55.9 32.15 55.7 32.15 55.4C32.15 54.9 32.05 53.8 31.85 53C31.15 50.9 29.85 49.5 27.85 48.8C27.35 48.6 26.85 48.5 26.35 48.4C26.45 47 26.05 45.7 24.95 44.7C23.85 43.7 22.45 43.6 21.05 43.7C21.05 43.6 20.95 43.5 20.95 43.5C20.95 42.4 20.95 41.3 20.95 40.2C20.85 34.8 22.05 29.7 24.55 24.9C26.65 21 25.15 16.2 21.35 14C19.55 13 18.45 13 16.95 13C16.45 13 15.85 13.1 15.35 13.2C10.35 14.3 7.35 20.3 10.05 25.2C10.95 26.8 11.55 28.5 12.15 30.2C13.65 34.5 13.65 39.1 13.55 43.6C13.55 43.6 13.55 43.7 13.45 43.7C12.05 43.6 10.75 43.8 9.65 44.8C8.55 45.8 8.25 47.1 8.25 48.5C4.55 49.1 2.45 51.6 2.45 55.3C2.45 55.9 2.45 56.6 2.45 57.3C1.95 57.3 1.55 57.3 1.25 57.3C0.55 57.3 0.25 57.6 0.25 58.3C0.25 59.9 0.25 61.5 0.25 63C0.25 63.7 0.65 64 1.35 64C2.25 64 3.15 64 4.05 64C4.65 64 5.05 63.6 5.05 63.1C5.05 62.5 4.75 62.2 4.05 62.2C3.45 62.2 2.85 62.2 2.15 62.2C2.15 61.2 2.15 60.2 2.15 59.2C12.35 59.2 22.45 59.2 32.55 59.2C32.55 60.2 32.55 61.2 32.55 62.2C32.25 62.2 32.05 62.2 31.75 62.2C24.35 62.2 16.85 62.2 9.45 62.2C9.25 62.2 8.95 62.1 8.85 62.2C8.55 62.4 8.25 62.6 8.15 62.8C7.85 63.5 8.35 64 9.15 64C11.85 64 14.65 64 17.35 64C22.65 64 27.95 64 33.25 64C34.15 64 34.45 63.7 34.55 63C34.55 61.4 34.55 59.8 34.55 58.3C34.35 57.6 33.95 57.2 33.35 57.2ZM11.65 24.2C10.35 21.8 10.55 19.4 12.15 17.2C14.05 14.6 17.65 13.9 20.45 15.6C23.25 17.3 24.35 20.9 22.85 23.8C21.75 25.9 20.85 28.1 20.15 30.4C19.35 33.4 18.95 36.4 18.95 39.5C18.95 40.8 18.95 42.2 18.95 43.5C17.65 43.5 16.55 43.5 15.35 43.5C15.35 42.2 15.45 41 15.35 39.8C15.25 37.7 15.15 35.6 14.85 33.6C14.35 30.4 13.25 27.2 11.65 24.2ZM12.55 45.5C15.65 45.5 18.75 45.5 21.75 45.5C23.55 45.5 24.45 46.5 24.35 48.4C19.65 48.4 14.85 48.4 10.15 48.4C9.85 46.6 10.85 45.5 12.55 45.5ZM4.15 57.2C4.25 56 4.15 54.9 4.35 53.8C4.75 51.9 6.45 50.6 8.35 50.4C8.85 50.4 9.45 50.4 9.95 50.4C15.05 50.4 20.15 50.4 25.25 50.4C27.65 50.4 29.55 51.7 29.95 53.9C30.15 55 30.15 56.1 30.15 57.3C21.55 57.2 12.95 57.2 4.15 57.2Z" fill="#F7B66A"/>
</svg>
