<svg width="65" height="64" viewBox="0 0 65 64" fill="none" xmlns="http://www.w3.org/2000/svg">
<g clip-path="url(#clip0_65_141)">
<path d="M7.4502 36.1C7.8502 36 8.2502 35.8 8.6502 35.7C9.9502 35.5 11.0502 35.8 12.0502 36.7C14.2502 38.6 16.4502 40.6 18.6502 42.5C19.2502 43 20.0502 43.5 20.7502 43.8C24.2502 45.5 26.6502 48.1 28.0502 51.6C28.7502 53.4 28.5502 55.2 28.0502 57C27.5502 58.7 27.3502 60.3 27.4502 62C27.4502 62.3 27.4502 62.6 27.4502 62.9C27.4502 63.5 26.9502 63.9 26.4502 63.9C25.9502 63.9 25.4502 63.5 25.4502 63C25.4502 61.2 25.2502 59.3 25.8502 57.5C26.0502 56.7 26.2502 56 26.3502 55.2C26.6502 53.8 26.3502 52.5 25.6502 51.2C24.2502 48.7 22.3502 46.7 19.6502 45.6C18.8502 45.2 18.0502 44.7 17.2502 44C15.1502 42.2 13.0502 40.3 10.9502 38.4C10.3502 37.9 9.7502 37.6 9.0502 37.7C8.4502 37.8 8.0502 38.2 7.8502 38.7C7.6502 39.3 7.8502 39.7 8.2502 40.1C10.6502 42.5 13.0502 44.9 15.4502 47.3C15.6502 47.5 15.9502 47.7 15.9502 48C15.9502 48.4 15.9502 48.8 15.7502 49.1C15.5502 49.3 15.0502 49.3 14.7502 49.3C14.5502 49.3 14.2502 49 14.0502 48.8C11.4502 46.5 9.0502 44 6.5502 41.6C6.0502 41.1 5.6502 40.4 5.6502 39.7C5.3502 36.5 5.1502 33.3 4.8502 30.1C4.7502 29.2 4.5502 28.4 3.5502 28.1C2.8502 27.8 2.4502 28.1 2.4502 28.8C2.4502 32.9 2.4502 37 2.4502 41.1C2.4502 41.7 2.7502 42.4 3.1502 42.9C4.6502 45.1 6.2502 47.2 7.8502 49.3C9.9502 52.1 11.9502 54.8 14.0502 57.6C14.6502 58.5 14.9502 59.4 14.8502 60.5C14.7502 61.2 14.8502 62 14.8502 62.7C14.8502 63.5 14.4502 64 13.8502 64C13.2502 64 12.8502 63.5 12.8502 62.7C12.8502 61.9 12.8502 61.1 12.8502 60.2C12.8502 59.5 12.7502 59 12.3502 58.5C10.6502 56.3 8.9502 54 7.2502 51.8C5.4502 49.3 3.5502 46.8 1.7502 44.3C0.850195 43 0.450195 41.6 0.450195 39.9C0.550195 36.2 0.450195 32.4 0.450195 28.7C0.450195 26.6 1.9502 25.5 3.9502 26C5.4502 26.3 6.6502 27.5 6.8502 29C7.0502 31.1 7.1502 33.2 7.3502 35.2C7.3502 35.5 7.3502 35.8 7.4502 36.1Z" fill="#F7B66A"/>
<path d="M57.5501 36.2C57.7501 34.1 57.8501 32.1 58.0501 30C58.1501 29 58.2501 28 58.9501 27.2C59.9501 26.1 61.0501 25.6 62.5501 25.9C63.6501 26.2 64.4501 27.1 64.4501 28.3C64.4501 32.6 64.5501 37 64.4501 41.3C64.4501 42.1 64.0501 42.9 63.6501 43.6C62.4501 45.4 61.2501 47.3 59.9501 49C57.7501 52 55.4501 54.9 53.1501 57.9C52.4501 58.8 52.0501 59.7 52.2501 60.9C52.3501 61.6 52.2501 62.2 52.2501 62.9C52.2501 63.6 51.8501 64 51.2501 64C50.6501 64 50.2501 63.6 50.2501 63C50.2501 61.8 50.1501 60.6 50.2501 59.4C50.3501 58.8 50.6501 58.2 50.9501 57.7C52.8501 55.1 54.9501 52.4 56.8501 49.8C58.4501 47.6 60.0501 45.5 61.6501 43.3C62.3501 42.3 62.6501 41.3 62.6501 40C62.5501 36.3 62.6501 32.5 62.6501 28.8C62.6501 27.9 62.2501 27.7 61.4501 28C60.7501 28.3 60.4501 29 60.3501 29.7C60.2501 31 60.1501 32.3 60.0501 33.6C59.8501 35.6 59.7501 37.7 59.5501 39.7C59.4501 40.3 59.1501 41 58.7501 41.4C56.2501 43.9 53.7501 46.4 51.2501 48.9C51.1501 49 51.0501 49.1 50.9501 49.2C50.4501 49.6 49.9501 49.5 49.5501 49.2C49.1501 48.8 49.1501 48.3 49.5501 47.8C49.6501 47.6 49.8501 47.5 50.0501 47.3C52.3501 45 54.6501 42.7 56.9501 40.4C57.6501 39.7 57.7501 39.1 57.3501 38.4C56.8501 37.7 55.8501 37.5 55.0501 37.9C54.7501 38.1 54.4501 38.3 54.2501 38.5C52.3501 40.2 50.3501 42 48.4501 43.7C47.5501 44.6 46.4501 45.2 45.2501 45.8C42.3501 47.2 40.3501 49.4 39.2501 52.4C38.7501 53.7 38.9501 55.1 39.3501 56.4C39.9501 58.5 40.0501 60.5 40.0501 62.6C40.0501 63.4 39.6501 63.9 38.9501 63.9C38.3501 63.9 37.9501 63.4 37.9501 62.6C38.0501 60.5 37.8501 58.5 37.2501 56.5C36.2501 53.2 37.4501 50.4 39.4501 47.8C40.9501 46 42.7501 44.6 44.8501 43.6C45.7501 43.2 46.5501 42.5 47.3501 41.9C49.1501 40.3 51.0501 38.7 52.7501 37C53.9501 35.8 55.5501 35.2 57.5501 36.2Z" fill="#F7B66A"/>
<path d="M38.2499 30.6C38.3499 33.3 38.5499 35.9 38.6499 38.5C38.6499 39.4 38.7499 40.3 38.6499 41.1C38.4499 42.4 37.7499 43.1 36.7499 43.2C35.4499 43.4 34.1499 42.9 33.6499 41.9C33.2499 40.9 33.0499 39.7 32.7499 38.6C32.7499 38.5 32.6499 38.3 32.5499 38.2C32.3499 39 32.2499 39.8 32.0499 40.6C31.6499 42.4 30.6499 43.2 28.9499 43.3C27.6499 43.3 26.7499 42.7 26.5499 41.4C26.4499 40.4 26.4499 39.4 26.4499 38.4C26.5499 35.8 26.6499 33.2 26.8499 30.5C26.5499 30.6 26.2499 30.7 25.9499 30.8C23.9499 31.3 22.2499 30.1 22.3499 28C22.4499 26.1 22.6499 24.2 22.9499 22.4C23.3499 20.1 24.0499 17.9 24.5499 15.7C25.0499 13.9 26.1499 12.7 27.8499 12.1C31.1499 10.9 34.4499 10.9 37.7499 12.3C39.0499 12.9 40.0499 13.9 40.4499 15.3C41.6499 19.1 42.4499 22.9 42.8499 26.8C42.8499 27.2 42.8499 27.6 42.8499 28C42.7499 30 41.2499 31.2 39.2499 30.7C38.9499 30.8 38.6499 30.7 38.2499 30.6ZM36.1499 30.9C35.9499 27.1 35.7499 23.8 35.5499 20.5C35.5499 19.7 35.8499 19.2 36.4499 19.2C37.1499 19.1 37.4499 19.6 37.5499 20.4C37.8499 22.6 38.1499 24.9 38.4499 27.1C38.5499 27.6 38.8499 28.2 39.1499 28.6C39.3499 28.8 39.7499 28.9 40.0499 28.9C40.2499 28.8 40.4499 28.4 40.5499 28.2C40.6499 27.8 40.5499 27.4 40.5499 27C40.1499 23.4 39.3499 19.8 38.3499 16.4C38.0499 15.3 37.3499 14.6 36.3499 14.2C33.7499 13.3 31.0499 13.2 28.3499 14.2C27.2499 14.6 26.5499 15.3 26.2499 16.4C26.0499 17.1 25.8499 17.9 25.6499 18.6C24.9499 21.5 24.2499 24.4 24.0499 27.5C24.0499 28.1 23.9499 28.8 24.6499 29C25.1499 29.2 25.7499 28.6 26.0499 27.8C26.0499 27.7 26.1499 27.5 26.1499 27.4C26.2499 26.8 26.3499 26.2 26.4499 25.6C26.6499 23.9 26.8499 22.1 27.0499 20.4C27.1499 19.7 27.5499 19.3 28.1499 19.4C28.7499 19.4 29.1499 19.9 29.1499 20.5C29.1499 20.8 29.1499 21 29.1499 21.3C28.8499 26.4 28.5499 31.5 28.3499 36.6C28.2499 38 28.2499 39.3 28.2499 40.7C28.2499 40.9 28.4499 41.3 28.6499 41.4C29.0499 41.5 29.4499 41.4 29.5499 41C29.6499 40.7 29.7499 40.3 29.8499 40C30.3499 37.1 30.7499 34.2 31.2499 31.3C31.3499 30.6 31.7499 30.2 32.3499 30.2C32.9499 30.2 33.2499 30.6 33.4499 31.3C33.8499 33.7 34.1499 36.2 34.5499 38.6C34.6499 39.4 34.8499 40.1 35.0499 40.9C35.1499 41.4 35.5499 41.6 35.9499 41.5C36.1499 41.4 36.3499 41 36.4499 40.7C36.5499 40.4 36.4499 40.1 36.4499 39.7C36.4499 36.5 36.3499 33.4 36.1499 30.9Z" fill="#F7B66A"/>
<path d="M51.1494 25.6C51.2494 28.1 51.3494 30.4 51.5494 32.8C51.5494 33.1 51.5494 33.4 51.5494 33.8C51.4494 35.1 50.7494 36 49.6494 36.1C48.2494 36.3 47.0494 35.7 46.5494 34.4C46.2494 33.7 46.1494 33 45.9494 32.2C45.7494 32.9 45.6494 33.5 45.4494 34.1C44.9494 35.7 43.4494 36.5 41.9494 36C40.9494 35.7 40.2494 34.5 40.4494 33.5C40.5494 33 40.8494 32.7 41.3494 32.7C41.8494 32.7 42.1494 32.9 42.3494 33.4C42.4494 33.7 42.3494 34.2 42.8494 34C43.1494 33.9 43.4494 33.6 43.5494 33.3C43.9494 31.3 44.3494 29.3 44.7494 27.3C44.8494 26.8 44.9494 26.4 45.0494 25.9C45.1494 25.3 45.4494 25 46.0494 25C46.6494 25 47.0494 25.3 47.1494 25.9C47.5494 28 47.9494 30.2 48.3494 32.3C48.4494 32.7 48.4494 33.1 48.6494 33.5C48.7494 33.7 49.1494 33.9 49.3494 34.1C49.4494 33.9 49.6494 33.6 49.6494 33.4C49.5494 31.7 49.5494 29.9 49.4494 28.2C49.2494 24.7 49.0494 21.1 48.8494 17.6C48.8494 16.9 49.1494 16.5 49.7494 16.4C50.3494 16.3 50.7494 16.7 50.9494 17.3C51.2494 19 51.5494 20.6 51.9494 22.3C52.0494 22.8 52.3494 23.3 52.6494 23.8C52.7494 23.9 52.9494 24 53.1494 24C53.2494 24 53.4494 23.7 53.4494 23.6C53.4494 23.1 53.4494 22.5 53.3494 22C52.6494 19.1 51.8494 16.3 51.1494 13.4C50.9494 12.6 50.3494 12.2 49.6494 11.9C48.1494 11.3 46.5494 11.3 45.0494 11.4C43.8494 11.5 42.6494 11.8 41.7494 12.7C41.3494 13.1 40.8494 13 40.4494 12.6C40.0494 12.2 40.0494 11.6 40.4494 11.2C41.1494 10.7 41.8494 10.1 42.6494 9.80001C45.1494 9.00001 47.6494 9.00001 50.1494 9.80001C51.8494 10.3 52.9494 11.4 53.3494 13.1C54.0494 16.2 54.8494 19.3 55.6494 22.4C55.7494 22.8 55.7494 23.2 55.7494 23.6C55.6494 25.5 54.0494 26.5 52.2494 25.8C51.5494 25.8 51.4494 25.7 51.1494 25.6Z" fill="#F7B66A"/>
<path d="M22.5498 34C22.6498 33.8 22.6498 33.6 22.7498 33.4C22.9498 32.9 23.3498 32.6 23.8498 32.7C24.4498 32.8 24.7498 33.2 24.7498 33.7C24.7498 34.8 24.0498 35.8 23.0498 36C21.8498 36.3 20.4498 35.8 19.9498 34.8C19.5498 34 19.3498 33.1 19.0498 32.3C19.0498 32.4 18.9498 32.5 18.9498 32.7C18.7498 33.3 18.6498 33.9 18.4498 34.4C17.9498 35.7 16.6498 36.4 15.2498 36.1C14.2498 35.9 13.5498 35.1 13.5498 34C13.4498 32.8 13.5498 31.6 13.6498 30.4C13.7498 28.9 13.8498 27.3 13.9498 25.7C13.6498 25.8 13.4498 25.9 13.2498 26C11.4498 26.6 9.84976 25.5 9.94976 23.5C9.94976 22.2 10.2498 20.9 10.5498 19.6C11.0498 17.3 11.7498 15.1 12.3498 12.9C12.7498 11.5 13.7498 10.6 15.0498 10.1C17.8498 9.10004 20.5498 9.10004 23.3498 10.1C24.0498 10.3 24.6498 10.9 25.1498 11.4C25.5498 11.8 25.4498 12.4 25.1498 12.8C24.7498 13.2 24.2498 13.2 23.8498 12.9C22.9498 12 21.8498 11.8 20.6498 11.6C19.1498 11.4 17.7498 11.5 16.3498 11.9C15.2498 12.2 14.5498 12.8 14.2498 14C13.5498 16.9 12.7498 19.9 12.0498 22.8C11.9498 23 11.9498 23.3 12.0498 23.6C12.0498 23.8 12.2498 24 12.3498 24.2C12.5498 24.1 12.8498 24 12.9498 23.8C13.1498 23.4 13.4498 22.9 13.5498 22.4C13.8498 20.9 14.1498 19.3 14.4498 17.8C14.4498 17.7 14.4498 17.5 14.5498 17.4C14.7498 16.8 15.1498 16.4 15.6498 16.5C16.2498 16.6 16.5498 17 16.5498 17.7C16.4498 19.8 16.2498 21.9 16.1498 24C15.9498 27.1 15.7498 30.3 15.6498 33.4C15.6498 33.7 15.8498 34.1 16.0498 34.2C16.5498 34.3 16.7498 33.9 16.7498 33.5C17.1498 31.5 17.5498 29.5 17.8498 27.5C17.9498 27 18.0498 26.6 18.1498 26.1C18.2498 25.5 18.5498 25.2 19.2498 25.2C19.8498 25.2 20.1498 25.6 20.2498 26.1C20.6498 28.4 21.0498 30.8 21.5498 33.1C21.5498 33.9 21.7498 34.1 22.5498 34Z" fill="#F7B66A"/>
<path d="M36.6494 4.60002C36.6494 5.90002 36.2494 7.10002 35.2494 8.00002C33.6494 9.60002 31.5494 9.60002 29.8494 8.20002C27.7494 6.50002 27.7494 3.00002 29.7494 1.10002C32.5494 -1.49998 35.8494 0.700015 36.4494 3.20002C36.5494 3.70002 36.6494 4.20002 36.6494 4.60002ZM30.4494 4.60002C30.4494 4.80002 30.4494 4.90002 30.4494 5.10002C30.5494 6.00002 31.2494 6.80002 32.1494 7.10002C32.9494 7.30002 33.5494 6.90002 34.0494 6.30002C34.6494 5.60002 34.6494 4.70002 34.4494 3.80002C34.2494 2.80002 33.3494 2.00002 32.4494 2.00002C31.6494 2.00002 30.6494 2.80002 30.4494 3.80002C30.4494 4.10002 30.4494 4.40002 30.4494 4.60002Z" fill="#F7B66A"/>
<path d="M49.7493 4C49.7493 5.2 49.4493 6.2 48.6493 7.1C47.0493 8.8 44.3493 8.7 42.9493 6.8C41.8493 5.4 41.7493 3.8 42.5493 2.2C43.1493 0.7 44.4493 0 46.0493 0C48.2493 0.1 49.7493 1.8 49.7493 4ZM47.7493 4.2C47.7493 3 46.9493 2 45.9493 2C44.9493 2 44.1493 3 44.1493 4.2C44.1493 5.3 44.9493 6.1 45.9493 6.1C46.9493 6.2 47.7493 5.4 47.7493 4.2Z" fill="#F7B66A"/>
<path d="M22.9494 4.10003C22.9494 6.40003 21.2494 8.30003 19.0494 8.30003C16.9494 8.30003 15.1494 6.40003 15.1494 4.20003C15.1494 1.90003 16.8494 2.94354e-05 19.0494 0.100029C21.1494 2.94354e-05 22.9494 1.90003 22.9494 4.10003ZM17.2494 4.10003C17.2494 5.20003 18.0494 6.10003 19.0494 6.20003C20.0494 6.20003 20.8494 5.30003 20.8494 4.10003C20.8494 3.00003 20.0494 2.10003 19.0494 2.10003C18.0494 2.10003 17.2494 3.00003 17.2494 4.10003Z" fill="#F7B66A"/>
</g>
<defs>
<clipPath id="clip0_65_141">
<rect width="64.1" height="64" fill="white" transform="translate(0.450195)"/>
</clipPath>
</defs>
</svg>
